<?xml version="1.0" standalone="no"?><!DOCTYPE svg PUBLIC "-//W3C//DTD SVG 1.1//EN" "http://www.w3.org/Graphics/SVG/1.1/DTD/svg11.dtd"><svg t="1704786176001" class="icon" viewBox="0 0 1024 1024" version="1.1" xmlns="http://www.w3.org/2000/svg" p-id="15853" id="mx_n_1704786176001" xmlns:xlink="http://www.w3.org/1999/xlink" width="16" height="16"><path d="M511.6 512.1m-448.1 0a448.1 448.1 0 1 0 896.2 0 448.1 448.1 0 1 0-896.2 0Z" fill="#318AD5" p-id="15854"></path><path d="M362.3 482.3H661c16.5 0 29.9 13.4 29.9 29.9s-13.4 29.9-29.9 29.9H362.3c-16.5 0-29.9-13.4-29.9-29.9 0-16.6 13.4-29.9 29.9-29.9z" fill="#FFFFFF" p-id="15855"></path><path d="M541.5 362.8v298.7c0 16.5-13.4 29.9-29.9 29.9s-29.9-13.4-29.9-29.9V362.8c0-16.5 13.4-29.9 29.9-29.9s29.9 13.4 29.9 29.9z" fill="#FFFFFF" p-id="15856"></path></svg>