<svg id="Component_53_1" data-name="Component 53 – 1" xmlns="http://www.w3.org/2000/svg" xmlns:xlink="http://www.w3.org/1999/xlink" width="230.069" height="74.769" viewBox="0 0 230.069 74.769">
  <defs>
    <clipPath id="clip-path">
      <rect id="Rectangle_410" data-name="Rectangle 410" width="230.069" height="74.769" fill="none"/>
    </clipPath>
  </defs>
  <g id="Group_1110" data-name="Group 1110" clip-path="url(#clip-path)">
    <path id="Path_322" data-name="Path 322" d="M66.357,16.336A7.844,7.844,0,0,1,74.224,8.47V5.821a10.761,10.761,0,0,0-7.866,3.506V5.821H63.71V26.85h2.647Z" transform="translate(44.552 4.071)"/>
    <path id="Path_323" data-name="Path 323" d="M59.51,26.851a10.761,10.761,0,0,0,7.866-3.506v3.506h2.647V5.822H67.376v3.5A10.523,10.523,0,1,0,59.51,26.851m0-18.381a7.866,7.866,0,1,1-7.866,7.866A7.946,7.946,0,0,1,59.51,8.47" transform="translate(34.263 4.071)"/>
    <path id="Path_324" data-name="Path 324" d="M80.317,26.851a10.761,10.761,0,0,0,7.866-3.506v3.506H90.83V5.822H88.183v3.5a10.523,10.523,0,1,0-7.866,17.525m0-18.381a7.866,7.866,0,1,1-7.866,7.866A7.844,7.844,0,0,1,80.317,8.47" transform="translate(48.813 4.071)"/>
    <path id="Path_325" data-name="Path 325" d="M94.329,26.882a10.761,10.761,0,0,0,7.866-3.506v1.947A7.854,7.854,0,0,1,88.019,30l-1.946,1.947a10.48,10.48,0,0,0,18.692-6.309V5.775h-2.649v3.5a10.534,10.534,0,0,0-18.38,7.01A10.7,10.7,0,0,0,94.329,26.882m0-18.381a7.866,7.866,0,1,1-7.866,7.866A7.844,7.844,0,0,1,94.329,8.5" transform="translate(58.557 4.038)"/>
    <path id="Path_326" data-name="Path 326" d="M108.307,26.819a10.549,10.549,0,0,0,9.579-6.153H114.85a7.864,7.864,0,0,1-14.408-4.284h18.3a10.514,10.514,0,0,0-21.029,0,10.624,10.624,0,0,0,10.593,10.437m0-18.381a7.854,7.854,0,0,1,7.4,5.219H100.985a7.679,7.679,0,0,1,7.322-5.219" transform="translate(68.331 4.103)"/>
    <path id="Path_327" data-name="Path 327" d="M128.787,20.619a7.864,7.864,0,0,1-14.408-4.284h18.3a10.479,10.479,0,1,0-.935,4.362h-2.958ZM122.323,8.47a7.854,7.854,0,0,1,7.4,5.219H115a7.679,7.679,0,0,1,7.322-5.219" transform="translate(78.077 4.071)"/>
    <rect id="Rectangle_405" data-name="Rectangle 405" width="2.648" height="19.16" transform="translate(225.864 41.279)"/>
    <rect id="Rectangle_406" data-name="Rectangle 406" width="2.648" height="23.209" transform="translate(208.262 37.306)"/>
    <path id="Path_328" data-name="Path 328" d="M130.2,40.091c0,3.349-2.18,5.3-5.53,5.3v2.648c4.829,0,8.177-3.193,8.177-8.022v-12.7H130.2Z" transform="translate(87.178 19.103)"/>
    <path id="Path_329" data-name="Path 329" d="M155.791,29.509a12.288,12.288,0,0,0-8.879,3.817l1.869,1.869a9.641,9.641,0,0,1,16.667,6.62v.7H108.67a5.063,5.063,0,0,1-3.738-1.635,7.258,7.258,0,0,0,.391-2.649V31.144h-2.649v7.088c0,2.8-1.48,4.284-4.284,4.284H76.66V21.954H74.013V42.515H56.8a5.052,5.052,0,0,1-5.062-5.062V31.144H49.089v6.309a7.81,7.81,0,0,0,7.788,7.788h41.59a6.864,6.864,0,0,0,5.14-1.946,7.669,7.669,0,0,0,5.14,1.946h59.5V41.815a12.517,12.517,0,0,0-12.461-12.306" transform="translate(34.328 15.352)"/>
    <path id="Path_330" data-name="Path 330" d="M60.41,27.2a2.7,2.7,0,0,1,2.1,1.091l1.4-1.4a4.534,4.534,0,0,0-8.022,2.88v1.4H53.946v1.947h9.813V31.174h-6V29.849A2.625,2.625,0,0,1,60.41,27.2" transform="translate(37.724 17.66)"/>
    <path id="Path_331" data-name="Path 331" d="M134.3,22.736a1.4,1.4,0,0,1,1.4-1.4,1.377,1.377,0,0,1,1.169.624l.856-.858a2.653,2.653,0,0,0-4.673,1.715v.7h-1.013v1.247h5.529V23.515H134.3Z" transform="translate(92.339 14.103)"/>
    <rect id="Rectangle_407" data-name="Rectangle 407" width="2.648" height="3.038" transform="translate(190.505 64.099)"/>
    <rect id="Rectangle_408" data-name="Rectangle 408" width="2.648" height="3.038" transform="translate(139.645 64.099)"/>
    <rect id="Rectangle_409" data-name="Rectangle 409" width="2.648" height="3.038" transform="translate(134.35 64.099)"/>
    <path id="Path_332" data-name="Path 332" d="M127.5,27.812h1.324v-8.8l7.866,8.8h3.66l-9.813-10.9,9.813-8.8h-3.738l-7.788,6.7V4.446h-2.649V27.812Z" transform="translate(88.235 3.109)"/>
    <path id="Path_333" data-name="Path 333" d="M37.385,74.769A37.385,37.385,0,1,0,0,37.385,37.385,37.385,0,0,0,37.385,74.769"/>
    <path id="Path_334" data-name="Path 334" d="M39.578,9.341v4.44C37.63,10.665,32.568,8.25,28.441,8.25a15.656,15.656,0,0,0,0,31.311,12.942,12.942,0,0,0,11.137-7.168v4.986h4.517V9.341Zm0,14.563A11.137,11.137,0,1,1,28.441,12.768,11.136,11.136,0,0,1,39.578,23.9" transform="translate(8.941 5.769)" fill="#fff"/>
    <path id="Path_335" data-name="Path 335" d="M38.247,28.531a11.265,11.265,0,0,1-10.67,8.022,10.985,10.985,0,0,1-9.97-6.309l-.156-.389-3.426,3.427.078.156A15.814,15.814,0,0,0,27.577,41.07a15.583,15.583,0,0,0,14.487-9.735,14.908,14.908,0,0,0,.856-3.193H38.325a3.343,3.343,0,0,1-.078.389" transform="translate(9.808 19.68)" fill="#fff"/>
  </g>
</svg>
