<?xml version="1.0" standalone="no"?><!DOCTYPE svg PUBLIC "-//W3C//DTD SVG 1.1//EN" "http://www.w3.org/Graphics/SVG/1.1/DTD/svg11.dtd"><svg t="1704839646865" class="icon" viewBox="0 0 1843 1024" version="1.1" xmlns="http://www.w3.org/2000/svg" p-id="20918" width="35.99609375" height="20" xmlns:xlink="http://www.w3.org/1999/xlink"><path d="M916.335219 517.038308l10.238382-10.238382-10.238382 10.238382zM916.335219 506.799926l10.238382 10.238382a106.274409 106.274409 0 0 0-10.238382-10.238382z" fill="#000000" p-id="20919"></path><path d="M872.32196885 961.85782286c27.98557823 0 53.27158271-10.2583793 72.43855488-27.44566437l7.46881963-7.19886181 72.43855488-71.08876845 625.76113008-613.70303467a105.01340801 105.01340801 0 0 0 0-149.64635567 110.14259766 110.14259766 0 0 0-152.70587226 0L872.05201192 706.7481295 245.93093896 93.04509482a110.14259766 110.14259766 0 0 0-152.61588633 0 104.38350732 104.38350732 0 0 0 0.35994287 149.37639874l625.67114415 613.70303467 73.5183835 71.98862607 6.02904726 5.93906133c19.16697128 17.54722793 45.1728624 28.1655501 73.42839844 27.80560722zM876.37132901 507.42962247l-8.99857794 8.99857792 8.99857794-8.99857792z" fill="#bfbfbf" p-id="20920"></path><path d="M926.573601 517.038308l-10.238382-10.238382c3.276282 3.685818 6.552565 6.9621 10.238382 10.238382z" fill="#FFFFFF" p-id="20921"></path></svg>