<svg width="24" height="19" viewBox="0 0 24 19" fill="none" xmlns="http://www.w3.org/2000/svg">
<path d="M20.6891 1.02739C20.9662 0.723529 21.3491 0.537214 21.7592 0.506188C22.1693 0.475162 22.5757 0.601914 22.8955 0.860621C23.0509 0.98472 23.1796 1.13919 23.2732 1.31471C23.3668 1.49022 23.4235 1.68321 23.44 1.88146C23.4564 2.0797 23.4324 2.27916 23.3691 2.46773C23.3057 2.65629 23.2043 2.8299 23.0715 2.97797L9.78966 17.9737C9.51338 18.2774 9.1319 18.4646 8.72259 18.4967C8.31328 18.5287 7.90722 18.4033 7.58704 18.1463L7.55964 18.1248L0.530222 12.1254C0.376948 11.999 0.251007 11.8427 0.160379 11.6659C0.0697512 11.4891 0.016332 11.2956 0.00319555 11.0974C-0.00994087 10.8992 0.0175065 10.7004 0.0840131 10.5132C0.15052 10.326 0.254563 10.1543 0.389819 10.0088C0.670696 9.70915 1.0555 9.52865 1.46545 9.50399C1.87539 9.47934 2.2794 9.61244 2.59415 9.87623L2.60408 9.88411L8.44179 14.8592L20.6891 1.02739Z" fill="#1B004E"/>
</svg>
