<svg id="Component_48_1" data-name="Component 48 – 1" xmlns="http://www.w3.org/2000/svg" xmlns:xlink="http://www.w3.org/1999/xlink" width="253.766" height="100.21" viewBox="0 0 253.766 100.21">
  <defs>
    <clipPath id="clip-path">
      <rect id="Rectangle_416" data-name="Rectangle 416" width="253.766" height="100.21" fill="none"/>
    </clipPath>
  </defs>
  <g id="Group_1119" data-name="Group 1119">
    <g id="Group_1118" data-name="Group 1118" clip-path="url(#clip-path)">
      <path id="Path_366" data-name="Path 366" d="M174.351,54.566q-1.277,1.195-4.735,1.195-3.5,0-4.715-1.154t-1.215-4.16q0-3.129,1.256-4.348t4.756-1.215q3.46,0,4.695,1.174t1.235,4.181q0,3.134-1.277,4.328m-16.6,15.448a1.448,1.448,0,0,1-.433.742,1.078,1.078,0,0,1-.679.206,2.261,2.261,0,0,1-.742-.144q-.412-.144-.927-.309t-1.132-.309a6.02,6.02,0,0,0-1.359-.144,4.578,4.578,0,0,0-1.73.35,7.3,7.3,0,0,0-1.791,1.092,13.266,13.266,0,0,0-1.935,1.977,31.981,31.981,0,0,0-2.159,3.045V99.426a1.124,1.124,0,0,1-.247.721,1.826,1.826,0,0,1-.844.515,7.345,7.345,0,0,1-1.585.309q-.99.1-2.512.1a24.667,24.667,0,0,1-2.512-.1,7.338,7.338,0,0,1-1.585-.309,1.818,1.818,0,0,1-.845-.515,1.124,1.124,0,0,1-.247-.721V62.682a1.268,1.268,0,0,1,.206-.72,1.505,1.505,0,0,1,.742-.515,5.915,5.915,0,0,1,1.378-.309,18.162,18.162,0,0,1,2.121-.1,19.093,19.093,0,0,1,2.182.1,4.959,4.959,0,0,1,1.338.309,1.514,1.514,0,0,1,.68.515,1.272,1.272,0,0,1,.206.72v4.573a29.316,29.316,0,0,1,2.717-3.4,15.442,15.442,0,0,1,2.43-2.121,7.653,7.653,0,0,1,2.306-1.091,8.86,8.86,0,0,1,2.307-.309c.356,0,.742.021,1.153.062a11.265,11.265,0,0,1,1.277.206,8.439,8.439,0,0,1,1.153.329,2.293,2.293,0,0,1,.721.391,1.289,1.289,0,0,1,.329.453,3.617,3.617,0,0,1,.185.679,10.2,10.2,0,0,1,.124,1.3q.04.865.041,2.348T158,68.532a7.633,7.633,0,0,1-.248,1.481Zm-29.462-6.241q-.062.351-.165.8t-.265,1.03L116.827,98.85a3.229,3.229,0,0,1-.556,1.133,2.318,2.318,0,0,1-1.153.679,9.639,9.639,0,0,1-2.182.329q-1.379.083-3.6.083-2.183,0-3.562-.1a9.92,9.92,0,0,1-2.162-.351,2.308,2.308,0,0,1-1.133-.679,3.258,3.258,0,0,1-.555-1.091L90.885,65.606q-.248-.824-.392-1.485a7.545,7.545,0,0,1-.165-.948c-.014-.192-.02-.371-.02-.535a1.186,1.186,0,0,1,.226-.721,1.658,1.658,0,0,1,.8-.515,6.43,6.43,0,0,1,1.585-.288q1.007-.082,2.533-.082,1.688,0,2.718.1a8.643,8.643,0,0,1,1.626.288,1.559,1.559,0,0,1,.844.536,3.234,3.234,0,0,1,.412.844l8.359,26.982.247,1.03.247-1.03L118.141,62.8a2.267,2.267,0,0,1,.391-.844,1.664,1.664,0,0,1,.844-.536,8,8,0,0,1,1.544-.288,24.985,24.985,0,0,1,2.532-.1q1.523,0,2.492.082a5.746,5.746,0,0,1,1.5.288,1.524,1.524,0,0,1,.742.515,1.276,1.276,0,0,1,.206.721q0,.206-.021.494a6.189,6.189,0,0,1-.082.639M83.305,83.69H60.945a15.274,15.274,0,0,0,.555,4.263,8.133,8.133,0,0,0,1.771,3.254,7.711,7.711,0,0,0,3.128,2.04,13.387,13.387,0,0,0,4.592.7,25.728,25.728,0,0,0,4.776-.391,31.659,31.659,0,0,0,3.561-.864q1.5-.474,2.492-.865a4.612,4.612,0,0,1,1.606-.392,1.213,1.213,0,0,1,.618.144,1.078,1.078,0,0,1,.411.515,3.437,3.437,0,0,1,.226,1.051q.062.679.062,1.709,0,.906-.041,1.545a9.945,9.945,0,0,1-.124,1.092,2.642,2.642,0,0,1-.247.762,2.849,2.849,0,0,1-.432.6,5,5,0,0,1-1.462.783,23.08,23.08,0,0,1-3.047.968,41.954,41.954,0,0,1-4.242.824,35.3,35.3,0,0,1-5.106.35,27,27,0,0,1-8.583-1.237A15.278,15.278,0,0,1,55.3,96.79a15.59,15.59,0,0,1-3.685-6.344,29.765,29.765,0,0,1-1.214-8.98,28.544,28.544,0,0,1,1.276-8.837,18.536,18.536,0,0,1,3.706-6.673A15.951,15.951,0,0,1,61.3,61.775a20.338,20.338,0,0,1,7.844-1.442,20.543,20.543,0,0,1,7.886,1.36A14.227,14.227,0,0,1,82.4,65.462a15.209,15.209,0,0,1,3.089,5.705,24.853,24.853,0,0,1,.988,7.168v1.648a4,4,0,0,1-.844,2.8,3.027,3.027,0,0,1-2.328.906M74.679,70.158q-1.875-2.492-5.786-2.492a7.5,7.5,0,0,0-3.438.742,7.046,7.046,0,0,0-2.43,2,9.105,9.105,0,0,0-1.484,2.966,14.732,14.732,0,0,0-.6,3.646H76.425a10.648,10.648,0,0,0-1.747-6.86M36.856,94.441a22.024,22.024,0,0,1-8.709,4.84,42.626,42.626,0,0,1-12.209,1.545H3.212a3.371,3.371,0,0,1-2.286-.8A3.292,3.292,0,0,1,0,97.408V50.941a3.3,3.3,0,0,1,.926-2.616,3.368,3.368,0,0,1,2.286-.8H16.884A38.23,38.23,0,0,1,28.973,49.19a21.883,21.883,0,0,1,8.359,4.943A21.21,21.21,0,0,1,42.5,62.228a32.315,32.315,0,0,1,1.771,11.164,36.475,36.475,0,0,1-1.915,12.543,21.294,21.294,0,0,1-5.5,8.507M32.182,66.718a15.016,15.016,0,0,0-2.842-5.643,13.194,13.194,0,0,0-5.023-3.728,20.4,20.4,0,0,0-8.051-1.339H10.79V92.258h5.642a21.287,21.287,0,0,0,7.494-1.153,12.538,12.538,0,0,0,5.086-3.481,15.035,15.035,0,0,0,3.047-5.788,28.985,28.985,0,0,0,1.008-8.074,26.778,26.778,0,0,0-.884-7.044M165.56,61.507a7.092,7.092,0,0,1,1.585-.35,25.66,25.66,0,0,1,5.024,0,7.1,7.1,0,0,1,1.585.35,1.948,1.948,0,0,1,.844.536,1.124,1.124,0,0,1,.247.721V99.426a1.124,1.124,0,0,1-.247.721,1.819,1.819,0,0,1-.844.515,7.345,7.345,0,0,1-1.585.309q-.988.1-2.512.1a24.681,24.681,0,0,1-2.512-.1,7.345,7.345,0,0,1-1.585-.309,1.819,1.819,0,0,1-.844-.515,1.124,1.124,0,0,1-.247-.721V62.763a1.124,1.124,0,0,1,.247-.721,1.948,1.948,0,0,1,.844-.536" transform="translate(0 -18.727)" fill="#262626"/>
      <path id="Path_367" data-name="Path 367" d="M263.944,9.014,285.152,0l30.222,30.222L333.4,10.074l15.376,15.906L333.4,48.25,359.912,74.76,348.778,94.908l-36.584-17.5-16.967,22.8L264.474,82.183,254.4,71.049l18.557,6.893,28.1-31.283Z" transform="translate(-106.146 0)" fill="#969696"/>
    </g>
  </g>
</svg>
