<svg width="228" height="209" viewBox="0 0 228 209" fill="none" xmlns="http://www.w3.org/2000/svg">
<g clip-path="url(#clip0_3337_19630)">
<path fill-rule="evenodd" clip-rule="evenodd" d="M68.0331 0H212.384C220.962 0 228 7.04 228 15.6933V191.18C228 199.833 220.962 206.873 212.311 206.873C211.651 206.873 210.991 206.8 210.331 206.727L59.6755 187.367C51.6112 186.34 45.673 179.3 46.0395 171.16L52.3443 15.0333C52.7109 6.67333 59.6022 0 68.0331 0Z" fill="#1B004E"/>
<path fill-rule="evenodd" clip-rule="evenodd" d="M163.559 125.107H144.131C140.099 125.107 136.8 121.807 136.8 117.773C136.8 113.74 140.099 110.44 144.131 110.44H163.559C164.365 110.44 165.025 111.1 165.025 111.907V123.567C165.025 124.447 164.365 125.107 163.559 125.107Z" fill="#E9DEFC"/>
<path fill-rule="evenodd" clip-rule="evenodd" d="M149.923 162.8H54.6171C47.2859 162.8 41.3477 156.86 41.3477 149.527V91.2999C41.3477 83.9666 47.2859 78.0266 54.6171 78.0266H149.923C157.254 78.0266 163.192 83.9666 163.192 91.2999V149.6C163.192 156.86 157.254 162.8 149.923 162.8Z" fill="#9963FE"/>
<path fill-rule="evenodd" clip-rule="evenodd" d="M149.409 86.5333H54.6899C53.8102 86.5333 53.1504 85.8733 53.1504 84.9933C53.1504 84.1133 53.8102 83.4533 54.6899 83.4533H149.409C150.289 83.4533 150.948 84.1133 150.948 84.9933C150.948 85.8 150.215 86.5333 149.409 86.5333Z" fill="#E9DEFC"/>
<path fill-rule="evenodd" clip-rule="evenodd" d="M89.3665 135.667L110.48 130.533C109.82 125.913 112.46 121.367 116.785 119.753L97.4308 40.1867C92.8854 40.7 88.56 38.06 86.9472 33.8067L65.76 38.94C66.2732 43.4867 63.634 47.8133 59.3819 49.4267L78.7362 128.92C83.3549 128.48 87.8269 131.193 89.3665 135.667ZM113.633 132.367L87.387 138.747L87.0938 137.28C86.0674 133.173 82.0353 130.753 78.0764 131.707L76.8301 132L56.2295 47.5933L57.4758 47.3C61.4346 46.3467 63.9272 42.3133 62.9742 38.28L62.6809 37.0333L88.78 30.6533L89.0732 31.9C90.0263 35.86 94.0584 38.3533 98.0906 37.4L99.3369 37.1067L119.864 121.513L118.618 121.807C114.586 122.76 112.166 126.793 113.12 130.827L113.633 132.367Z" fill="#25F5CE"/>
<path fill-rule="evenodd" clip-rule="evenodd" d="M90.4663 94.3066C85.1879 95.6266 79.8361 92.3266 78.5898 87.0466C77.2702 81.7666 80.5692 76.4133 85.8477 75.1666C91.1261 73.8466 96.4779 77.1466 97.7242 82.4266C98.9705 87.7066 95.7448 92.9866 90.4663 94.3066Z" fill="#25F5CE"/>
<path fill-rule="evenodd" clip-rule="evenodd" d="M101.903 119.093L123.457 122.173C124.557 117.627 128.735 114.473 133.354 114.473L144.937 33.44C140.539 32.1933 137.533 28.16 137.606 23.6133L115.979 20.5333C114.733 24.9333 110.701 27.94 106.155 27.8666L94.5721 108.9C99.0441 110.147 102.123 114.4 101.903 119.093ZM125.656 125.107L98.9708 121.293L99.2641 119.827C99.8506 115.647 97.0647 111.833 92.9593 111.247L91.6396 111.027L103.956 25.0066L105.276 25.2266C109.381 25.8133 113.12 22.9533 113.707 18.92L113.926 17.6L140.539 21.4133L140.319 22.7333C139.732 26.84 142.591 30.58 146.624 31.1666L147.943 31.3866L135.627 117.333L134.307 117.113C130.202 116.527 126.463 119.387 125.876 123.42L125.656 125.107Z" fill="#25F5CE"/>
<path fill-rule="evenodd" clip-rule="evenodd" d="M118.325 81.1066C112.973 80.3 109.161 75.3133 109.967 69.96C110.774 64.6066 115.759 60.7933 121.111 61.6C126.462 62.4066 130.275 67.3933 129.468 72.7466C128.662 78.1 123.75 81.9133 118.325 81.1066Z" fill="#25F5CE"/>
<path fill-rule="evenodd" clip-rule="evenodd" d="M58.5762 153.78H157.327V86.5333H58.5762V153.78Z" fill="#9963FE"/>
<path fill-rule="evenodd" clip-rule="evenodd" d="M163.559 128.48H144.131C140.099 128.48 136.8 125.18 136.8 121.147C136.8 117.113 140.099 113.813 144.131 113.813H165.098V126.94C165.025 127.82 164.365 128.48 163.559 128.48Z" fill="#E9DEFC"/>
<path fill-rule="evenodd" clip-rule="evenodd" d="M138.926 121.22C138.926 118.213 141.345 115.793 144.351 115.793C147.357 115.793 149.776 118.213 149.776 121.22C149.776 124.227 147.357 126.647 144.351 126.647C141.345 126.573 138.926 124.153 138.926 121.22Z" fill="#9963FE"/>
<path d="M45.4531 174.533C56.79 174.533 65.9804 165.34 65.9804 154C65.9804 142.66 56.79 133.467 45.4531 133.467C34.1162 133.467 24.9258 142.66 24.9258 154C24.9258 165.34 34.1162 174.533 45.4531 174.533Z" fill="#25F5CE"/>
<path d="M54.617 146.593L43.4002 161.187L37.3887 157.153" stroke="white" stroke-width="4" stroke-miterlimit="10" stroke-linecap="round" stroke-linejoin="round"/>
</g>
<defs>
<clipPath id="clip0_3337_19630">
<rect width="228" height="209" fill="white"/>
</clipPath>
</defs>
</svg>
