<svg xmlns="http://www.w3.org/2000/svg" viewBox="0 0 566.08 98.87"><path d="M207.25,184.21a5,5,0,0,1-5.32,5l-1.2,0c-9.79,0-17.44,5-17.44,22.12v31a5,5,0,0,1-5,5H177.1a5,5,0,0,1-5-5V184.42a5,5,0,0,1,5-5h1.18a5,5,0,0,1,5,5v3.5h.28c2.27-4.53,9.08-8.8,18-8.8h.72a5,5,0,0,1,4.95,5Z" transform="translate(-16.68 -150.86)" fill="#212322"/><path d="M218.15,179.42h4.3V162.36a4.63,4.63,0,0,1,4.63-4.63H229a4.63,4.63,0,0,1,4.63,4.63v17.06h13.86a4.63,4.63,0,0,1,4.63,4.63v.09a4.63,4.63,0,0,1-4.63,4.63H233.65v35.87c0,11.06,3.4,14,10.63,14a31,31,0,0,0,3.2-.17,4.6,4.6,0,0,1,5,4.61h0a4.65,4.65,0,0,1-3.9,4.58,41.32,41.32,0,0,1-6.59.48c-16.45,0-19.57-11.06-19.57-24V188.77h-4.3a4.63,4.63,0,0,1-4.63-4.63v-.09A4.63,4.63,0,0,1,218.15,179.42Z" transform="translate(-16.68 -150.86)" fill="#212322"/><path d="M263.65,179.42h0a5.59,5.59,0,0,1,5.6,5.6v2.9h.28c6.24-8.08,14-10.77,21.41-10.77,12.33,0,26.79,7.66,26.79,30.62v33.95a5.6,5.6,0,0,1-5.6,5.6h0a5.6,5.6,0,0,1-5.6-5.6V208.48c0-13.75-6.66-21.26-17.29-21.26-12.19,0-20,8.22-20,23.95v30.55a5.6,5.6,0,0,1-5.6,5.6h0a5.6,5.6,0,0,1-5.6-5.6V185A5.6,5.6,0,0,1,263.65,179.42Z" transform="translate(-16.68 -150.86)" fill="#212322"/><path d="M391.48,212.45v0a4.12,4.12,0,0,1-4.12,4.07H337.77a1.9,1.9,0,0,0-1.89,2.11c1.2,11.44,12,21.14,24,21.14,7.23,0,12-2.38,16-6.63a5.2,5.2,0,0,1,3.77-1.6h0a5.29,5.29,0,0,1,3.65,9.12,32.57,32.57,0,0,1-23.15,9c-21.55,0-36-16.16-36-37.28,0-18.71,13.19-35.3,33.74-35.3C382.55,177.29,391.48,197.56,391.48,212.45Zm-53.37-5.25h39.37a1.9,1.9,0,0,0,1.87-2.29c-2-9.68-10-18-21.47-18-11.95,0-19.77,8.52-21.64,18A1.91,1.91,0,0,0,338.11,207.2Z" transform="translate(-16.68 -150.86)" fill="#212322"/><path d="M432.15,184a5,5,0,0,1-5.31,5l-1.21,0c-9.78,0-17.44,5.2-17.44,22.35v31a5,5,0,0,1-5,5H402a5,5,0,0,1-5-5V184.42a5,5,0,0,1,5-5h1.19a5,5,0,0,1,5,5v3.5h.28c2.27-4.53,9.08-9,18-9h.73a5,5,0,0,1,4.94,5Z" transform="translate(-16.68 -150.86)" fill="#212322"/><path d="M443.33,179.42h0a5.6,5.6,0,0,1,5.6,5.6v56.7a5.6,5.6,0,0,1-5.6,5.6h0a5.6,5.6,0,0,1-5.6-5.6V185A5.6,5.6,0,0,1,443.33,179.42Z" transform="translate(-16.68 -150.86)" fill="#212322"/><path d="M459.21,179.42H504.9a4.67,4.67,0,0,1,4.67,4.68v2.43a4.63,4.63,0,0,1-1.06,3l-39.76,48.32h36.36a4.68,4.68,0,0,1,4.67,4.68v.14a4.68,4.68,0,0,1-4.67,4.68H459.25a4.69,4.69,0,0,1-4.68-4.68v-2.57a4.64,4.64,0,0,1,1.08-3l39.89-48.32H459.21a4.68,4.68,0,0,1-4.68-4.67h0A4.68,4.68,0,0,1,459.21,179.42Z" transform="translate(-16.68 -150.86)" fill="#212322"/><path d="M582.76,212.45v0a4.12,4.12,0,0,1-4.12,4.07H529.06a1.91,1.91,0,0,0-1.9,2.11c1.2,11.44,12,21.14,24,21.14,7.22,0,12-2.38,16-6.63a5.2,5.2,0,0,1,3.77-1.6h0a5.29,5.29,0,0,1,3.65,9.12,32.55,32.55,0,0,1-23.15,9c-21.55,0-36-16.16-36-37.28,0-18.71,13.19-35.3,33.74-35.3C573.83,177.29,582.76,197.56,582.76,212.45ZM529.4,207.2h39.36a1.9,1.9,0,0,0,1.87-2.29c-2-9.68-10-18-21.47-18-11.95,0-19.76,8.52-21.64,18A1.91,1.91,0,0,0,529.4,207.2Z" transform="translate(-16.68 -150.86)" fill="#212322"/><circle cx="426.79" cy="13.03" r="7.9" fill="#212322"/><path d="M159.84,179a5.27,5.27,0,0,0-5.27,5.28v3.75a35.78,35.78,0,1,0,0,48.87v5.76a5.28,5.28,0,1,0,10.55,0V184.32A5.27,5.27,0,0,0,159.84,179Zm-31.38,58.69a25.23,25.23,0,1,1,25.23-25.23A25.26,25.26,0,0,1,128.46,237.73Z" transform="translate(-16.68 -150.86)" fill="#212322"/><path d="M53.33,224.19a36.66,36.66,0,0,1-18.94-5.27,5.28,5.28,0,1,1,5.46-9A26.11,26.11,0,1,0,27.24,187a5.28,5.28,0,1,1-10.56-.2,36.66,36.66,0,1,1,36.65,37.39Z" transform="translate(-16.68 -150.86)" fill="#212322"/><circle cx="36.66" cy="36.66" r="14.56" fill="#3786f0"/><path d="M22,247.84a5.27,5.27,0,0,1-5.27-5.28V202.07a5.28,5.28,0,1,1,10.55,0v40.49A5.27,5.27,0,0,1,22,247.84Z" transform="translate(-16.68 -150.86)" fill="#212322"/></svg>