<svg xmlns="http://www.w3.org/2000/svg" width="44" height="25.667" viewBox="0 0 44 25.667"><defs><style>.a{fill:rgba(37,245,206,0.25);}.b{fill:#25f5ce;}</style></defs><path class="a" d="M-7711.763-5258.742a2.3,2.3,0,0,1,3.146-.238,2.083,2.083,0,0,1,.251,3.019h0l-18.938,21.382a2.3,2.3,0,0,1-3.141.246l-.039-.031-10.023-8.554a2.078,2.078,0,0,1-.2-3.018,2.291,2.291,0,0,1,3.143-.189l.014.011,8.324,7.094Z" transform="translate(7751.833 5259.493)"/><path class="b" d="M-7711.763-5258.742a2.3,2.3,0,0,1,3.146-.238,2.083,2.083,0,0,1,.251,3.019h0l-18.938,21.382a2.3,2.3,0,0,1-3.141.246l-.039-.031-10.023-8.554a2.078,2.078,0,0,1-.2-3.018,2.291,2.291,0,0,1,3.143-.189l.014.011,8.324,7.094Z" transform="translate(7741.263 5259.493)"/></svg>