<svg width="134" height="34" viewBox="0 0 134 34" fill="none" xmlns="http://www.w3.org/2000/svg">
<path d="M1.15403 32.3874C1.19968 32.8546 1.61545 33.1964 2.08266 33.1507L9.6964 32.4068C10.1636 32.3611 10.5054 31.9453 10.4597 31.4781C10.4141 31.0109 9.99829 30.6692 9.53108 30.7148L2.76331 31.3761L2.10201 24.6083C2.05636 24.1411 1.64059 23.7994 1.17338 23.845C0.706159 23.8907 0.364414 24.3065 0.410067 24.7737L1.15403 32.3874ZM131.902 29.9075C132.235 30.2378 132.774 30.2352 133.104 29.9016C133.434 29.5681 133.432 29.0299 133.098 28.6996L131.902 29.9075ZM2.65664 32.8445C30.3784 -0.881484 87.3003 -14.2597 131.902 29.9075L133.098 28.6996C87.6997 -16.2566 29.6216 -2.63805 1.34336 31.765L2.65664 32.8445Z" fill="#766695"/>
</svg>
