<svg id="Component_47_1" data-name="Component 47 – 1" xmlns="http://www.w3.org/2000/svg" xmlns:xlink="http://www.w3.org/1999/xlink" width="291.999" height="63.984" viewBox="0 0 291.999 63.984">
  <defs>
    <clipPath id="clip-path">
      <rect id="Rectangle_415" data-name="Rectangle 415" width="291.999" height="63.984" transform="translate(0 0)" fill="none"/>
    </clipPath>
  </defs>
  <g id="Group_1116" data-name="Group 1116" clip-path="url(#clip-path)">
    <path id="Path_360" data-name="Path 360" d="M31.189,64.263A11.143,11.143,0,0,1,20.772,57L0,.3H17.147L31.313,43.059,45.568.3H62.538L41.6,57.027a11.147,11.147,0,0,1-10.407,7.236" transform="translate(0 -0.279)" fill="#5c5c5c"/>
    <path id="Path_361" data-name="Path 361" d="M1010.4,274.238c-15.032,0-25.942-10.649-25.942-25.32s10.948-25.32,26.031-25.32c15.032,0,25.942,10.649,25.942,25.32s-10.948,25.32-26.031,25.32m0-36.8c-6.139,0-10.594,4.829-10.594,11.483,0,6.761,4.357,11.483,10.594,11.483,6.19,0,10.683-4.829,10.683-11.483s-4.493-11.483-10.683-11.483" transform="translate(-926.967 -210.54)" fill="#5c5c5c"/>
    <rect id="Rectangle_414" data-name="Rectangle 414" width="15.171" height="41.051" transform="translate(116.792 21.487)" fill="#5c5c5c"/>
    <path id="Path_362" data-name="Path 362" d="M1987.344,0c4.852,0,8.785,3.655,8.785,8.163s-3.933,8.163-8.785,8.163-8.786-3.655-8.786-8.163S1982.491,0,1987.344,0" transform="translate(-1863.01 0.001)" fill="#5c5c5c"/>
    <path id="Path_363" data-name="Path 363" d="M2419.041,274.237c-7.473,0-13.908-2.543-18.61-7.355a26.726,26.726,0,0,1-.045-35.964c4.669-4.79,11.089-7.322,18.566-7.322,13.219,0,23.036,8.035,24.426,19.995l.09.776h-15.25l-.152-.489a9.088,9.088,0,0,0-9.025-6.445c-6.028,0-10.238,4.722-10.238,11.483s4.247,11.483,10.327,11.483c4.209,0,7.647-2.32,8.758-5.911l.152-.49H2443.4l-.107.79c-1.582,11.632-11.326,19.448-24.247,19.448" transform="translate(-2253.677 -210.539)" fill="#5c5c5c"/>
    <path id="Path_364" data-name="Path 364" d="M4299.858,274.237c-13.058,0-20.434-5.72-20.782-16.109h13.945c.406,2.709,2.794,4.139,6.926,4.139,1.526,0,6.5-.264,6.5-3.66,0-2.583-3.212-3.176-8.454-3.93-7.612-1.094-18.037-2.593-18.037-15.449a14.177,14.177,0,0,1,5.193-11c3.608-3.029,8.724-4.63,14.793-4.63,11.675,0,19.32,5.931,19.979,15.487h-13.333c-.529-2.558-2.876-3.961-6.646-3.961-3.678,0-6.149,1.4-6.149,3.482,0,2.119,3.079,2.66,8.148,3.3,4.124.52,8.8,1.11,12.573,3.258,4.481,2.55,6.659,6.715,6.659,12.732a14.535,14.535,0,0,1-5.574,11.768c-3.758,2.992-9.2,4.574-15.746,4.574" transform="translate(-4029.179 -210.539)" fill="#5c5c5c"/>
    <path id="Path_365" data-name="Path 365" d="M3372.1,274.237a24.286,24.286,0,0,1-17.508-7.086,25.325,25.325,0,0,1-7.012-17.967c0-15.065,10.193-25.587,24.787-25.587,7.474,0,13.733,2.614,18.1,7.558a26.389,26.389,0,0,1,6.153,17.584v4.7h-34.511l.068.406c.877,5.2,4.884,8.426,10.457,8.426,3.953,0,7.361-1.543,9.162-4.139h14.218c-2.481,10.1-11.385,16.109-23.913,16.109m.267-38.759a9.979,9.979,0,0,0-9.8,6.962l-.132.447h19.894l-.1-.429c-1.016-4.24-4.886-6.98-9.859-6.98" transform="translate(-3152.082 -210.539)" fill="#5c5c5c"/>
  </g>
</svg>
