<svg id="Component_49_1" data-name="Component 49 – 1" xmlns="http://www.w3.org/2000/svg" xmlns:xlink="http://www.w3.org/1999/xlink" width="240.999" height="100.21" viewBox="0 0 240.999 100.21">
  <defs>
    <clipPath id="clip-path">
      <rect id="Rectangle_417" data-name="Rectangle 417" width="240.999" height="100.21" fill="none"/>
    </clipPath>
  </defs>
  <g id="Group_1121" data-name="Group 1121" clip-path="url(#clip-path)">
    <path id="Path_368" data-name="Path 368" d="M0,.019c.286,0,.573.012.86.012H35.4a5.741,5.741,0,0,1,3.39,1.126,3.242,3.242,0,0,1,.819.885Q43.989,8.7,48.38,15.36c.114.174.243.337.364.506.071.123.136.251.214.37Q54.5,24.709,60.043,33.18q4.158,6.365,8.3,12.74c-.457.865-1.014,1.668-1.535,2.494Q58.054,62.281,49.225,76.1c-.076.119-.159.234-.263.387l-.817-1.271q-8.428-13.1-16.855-26.207Q20.044,31.51,8.809,14,4.5,7.29.185.581C.129.494.062.415,0,.332Z" transform="translate(0 -0.01)"/>
    <path id="Path_369" data-name="Path 369" d="M243.015,76.331c.444-.694.883-1.381,1.325-2.068l25.471-39.595q8.874-13.8,17.747-27.593,2.168-3.371,4.331-6.745A.614.614,0,0,1,292.479,0c13.253.008,26.505-.019,39.758.017a36.2,36.2,0,0,1,19.8,5.883,37.222,37.222,0,0,1,13.92,16.012,36.234,36.234,0,0,1,3.006,10.35,46.484,46.484,0,0,1,.276,9.091,36.288,36.288,0,0,1-4.409,15.382,37.37,37.37,0,0,1-14.006,14.507,36.981,36.981,0,0,1-18.845,5.147H286.272c-.045-.181.089-.275.16-.385q7.443-11.578,14.886-23.156a.653.653,0,0,1,.648-.31q12.288.006,24.575,0A14.058,14.058,0,0,0,340.557,39.77a14.3,14.3,0,0,0-2.187-9.483,13.841,13.841,0,0,0-10.093-6.338,17.117,17.117,0,0,0-2.262-.119c-3.913-.008-7.827,0-11.739-.013a.866.866,0,0,0-.841.461c-3.966,6.189-7.963,12.359-11.922,18.553C296.095,51.311,290.481,59.663,285,68.1c-1.725,2.657-3.459,5.307-5.178,7.968a.614.614,0,0,1-.591.327q-17.9-.011-35.805-.008a.659.659,0,0,1-.411-.058" transform="translate(-128.355 0)"/>
    <path id="Path_370" data-name="Path 370" d="M126.663.059C127.21.05,127.757.034,128.3.034Q145.322.026,162.34.026a5.518,5.518,0,0,1,3.439,1.2,3.116,3.116,0,0,1,.678.8Q171,8.942,175.534,15.853c.071.108.155.207.234.31.063.113.12.23.191.338q5.72,8.791,11.44,17.582,3.917,6.026,7.821,12.06c-.988,1.549-1.97,3.1-2.964,4.645Q184.148,63.394,176.035,76c-.082.128-.171.252-.278.409-1.191-1.85-2.354-3.654-3.516-5.46q-5.1-7.921-10.2-15.842-8.12-12.624-16.238-25.25c-.07-.109-.15-.212-.224-.318s-.124-.229-.194-.338q-7.858-12.215-15.717-24.429c-1.008-1.567-2.006-3.14-3.009-4.711" transform="translate(-66.901 -0.013)"/>
    <path id="Path_371" data-name="Path 371" d="M250.189,46.138q-3.91-6.031-7.821-12.06-5.716-8.794-11.44-17.582c-.071-.108-.128-.225-.191-.338l3.8-5.776c1.777-2.7,3.586-5.376,5.316-8.1A4.979,4.979,0,0,1,243.265.1,4.377,4.377,0,0,1,244.2.016q17.6,0,35.21,0h.378c.021.164-.082.244-.141.336Q265.018,23.1,250.385,45.847c-.063.1-.131.194-.2.291" transform="translate(-121.871 -0.008)"/>
    <path id="Path_372" data-name="Path 372" d="M114.329.1c1,1.57,2,3.144,3.009,4.711q7.857,12.215,15.717,24.429c.07.109.129.225.194.338q-3.431,5.457-6.863,10.915-1.612,2.563-3.229,5.123c-.075.12-.164.233-.246.349q-4.15-6.37-8.3-12.739-5.537-8.476-11.085-16.945c-.078-.119-.143-.246-.214-.37q3.265-5.126,6.531-10.251c1.012-1.58,2.053-3.14,3.071-4.717A1.739,1.739,0,0,1,114.329.1" transform="translate(-54.567 -0.051)"/>
    <path id="Path_373" data-name="Path 373" d="M104.011,192.229a3.345,3.345,0,0,1,1.316.028c.342.166.334.72.467,1.106.7,2.041,1.388,4.088,2.085,6.153.158-.087.159-.24.2-.363.771-2.2,1.545-4.392,2.3-6.593.089-.258.2-.4.486-.353a.96.96,0,0,0,.312,0c.283-.045.4.078.494.347.747,2.232,1.511,4.459,2.27,6.687.036.106.074.211.121.344a1.754,1.754,0,0,0,.263-.629q1.105-3.21,2.193-6.425c.086-.258.2-.367.467-.325a1.707,1.707,0,0,0,.274,0c.744,0,.743,0,.5.682q-1.475,4.176-2.943,8.354c-.1.274-.21.385-.514.376-.775-.023-.776-.006-1.033-.74l-2.14-6.113c-.036-.1-.074-.207-.134-.373-.435,1.224-.848,2.386-1.259,3.549-.395,1.116-.8,2.229-1.176,3.35-.078.23-.168.329-.429.327-.834-.01-.837,0-1.115-.787q-1.459-4.14-2.913-8.281c-.034-.1-.06-.2-.1-.324" transform="translate(-54.936 -101.502)"/>
    <path id="Path_374" data-name="Path 374" d="M309.509,194.608v6.248c0,.777,0,.777-.769.777a1.123,1.123,0,0,0-.2,0c-.294.051-.366-.068-.364-.36.012-2.464.007-4.928.007-7.392,0-.456.009-.913,0-1.369-.006-.21.047-.274.274-.3a1.239,1.239,0,0,1,1.257.6c1.511,2.058,3.075,4.078,4.621,6.111.068.09.143.174.281.339v-.458c0-2.073.007-4.146-.007-6.219,0-.293.073-.371.367-.367.968.012.968,0,.968.971,0,2.673-.006,5.345.008,8.018,0,.329-.063.423-.418.444a1.134,1.134,0,0,1-1.087-.549c-1.518-2.037-3.067-4.052-4.606-6.074-.084-.111-.173-.22-.331-.42" transform="translate(-162.775 -101.519)"/>
    <path id="Path_375" data-name="Path 375" d="M370.723,196.931c0-1.434.012-2.868-.009-4.3,0-.338.1-.409.412-.4,1.327.053,2.659-.085,3.984.084a4.1,4.1,0,0,1,3.694,3.951,6.181,6.181,0,0,1-.328,2.768,3.945,3.945,0,0,1-3.314,2.518,37.071,37.071,0,0,1-4.217.1c-.256.008-.223-.144-.223-.3q0-2.209,0-4.418m1.405.014c0,1.069.006,2.138,0,3.207,0,.229.045.321.3.312.625-.022,1.252.007,1.877-.019a2.866,2.866,0,0,0,2.98-2.266,5.519,5.519,0,0,0,.041-2.252,2.76,2.76,0,0,0-2.56-2.438c-.741-.106-1.485-.027-2.225-.069-.317-.018-.422.059-.414.4.025,1.042.009,2.086.009,3.129" transform="translate(-195.803 -101.532)"/>
    <path id="Path_376" data-name="Path 376" d="M261.038,197.57A2.813,2.813,0,0,1,262.313,199c.452.861.912,1.718,1.405,2.645-.513,0-.963,0-1.411,0-.2,0-.219-.166-.281-.282-.462-.874-.931-1.746-1.37-2.633a1.645,1.645,0,0,0-1.647-1.021c-.417.014-.835.017-1.251-.006-.269-.014-.324.093-.321.338.011,1.07-.009,2.139.014,3.208.007.335-.1.431-.417.4s-.722.1-.9-.062c-.217-.186-.068-.611-.069-.932-.006-2.673,0-5.347-.012-8.02,0-.325.077-.411.4-.405,1.239.021,2.478.011,3.717.007a4.661,4.661,0,0,1,1.275.167,2.342,2.342,0,0,1,1.832,2.333,2.472,2.472,0,0,1-1.675,2.66c-.145.052-.3.09-.563.17M257.417,195v1.368c0,.13-.025.268.183.261a23.821,23.821,0,0,0,3.082-.082,1.367,1.367,0,0,0,1.134-.847,1.6,1.6,0,0,0-1.471-2.344c-.885-.04-1.772-.009-2.658-.026-.238,0-.28.1-.275.3.012.456,0,.912,0,1.368" transform="translate(-135.22 -101.533)"/>
    <path id="Path_377" data-name="Path 377" d="M214.272,197.578a2.947,2.947,0,0,1,1.313,1.524c.435.826.877,1.649,1.353,2.543-.511,0-.959,0-1.406,0-.2,0-.222-.161-.283-.277-.462-.875-.93-1.746-1.37-2.633a1.646,1.646,0,0,0-1.644-1.023c-.417.014-.835.016-1.252-.005-.263-.013-.328.083-.325.334.012,1.082-.006,2.164.013,3.246.005.3-.083.39-.373.362-.322-.03-.754.1-.944-.061-.222-.192-.073-.635-.073-.968-.006-2.673,0-5.346-.01-8.019,0-.287.062-.373.361-.368,1.265.019,2.53.01,3.795.008a4.55,4.55,0,0,1,1.2.157,2.347,2.347,0,0,1,1.874,2.377,2.459,2.459,0,0,1-1.746,2.646l-.479.157m-3.635-2.605q0,.7,0,1.407c0,.114-.025.25.16.243a19.869,19.869,0,0,0,3.2-.1A1.329,1.329,0,0,0,215.1,195.5a1.561,1.561,0,0,0-1.55-2.144c-.872-.036-1.746-.007-2.619-.025-.252-.005-.306.09-.3.318.016.443,0,.886,0,1.329" transform="translate(-110.512 -101.534)"/>
    <path id="Path_378" data-name="Path 378" d="M279.987,196.773a5.34,5.34,0,0,1,.493-2.4,3.9,3.9,0,0,1,3.428-2.285,4.838,4.838,0,0,1,2.118.25,4.066,4.066,0,0,1,2.653,3.514,6.166,6.166,0,0,1-.284,3.117,3.969,3.969,0,0,1-3.689,2.663c-2.942.11-4.726-1.7-4.72-4.855m1.423.111a5.053,5.053,0,0,0,.169,1.452,2.869,2.869,0,0,0,5.542.117,5.678,5.678,0,0,0-.014-3.277,2.872,2.872,0,0,0-5.468-.007,5.307,5.307,0,0,0-.229,1.715" transform="translate(-147.883 -101.443)"/>
    <path id="Path_379" data-name="Path 379" d="M418.017,198.8c0,.639,0,1.278,0,1.917,0,.186-.024.317-.23.388a7.746,7.746,0,0,1-4.909.267,4.1,4.1,0,0,1-2.829-3.882,6.84,6.84,0,0,1,.178-2.289,4.077,4.077,0,0,1,3.854-3.112,5.171,5.171,0,0,1,3.387.824c.283.2.4.362.193.718-.332.561-.3.578-.851.217a3.953,3.953,0,0,0-3.143-.557,2.558,2.558,0,0,0-1.961,1.83,5.621,5.621,0,0,0-.015,3.426,2.714,2.714,0,0,0,2.573,1.988,7.072,7.072,0,0,0,2.171-.2c.185-.047.293-.106.289-.33-.013-.7-.011-1.408,0-2.112,0-.2-.06-.274-.267-.27-.535.012-1.07-.005-1.6.008-.228.006-.319-.05-.324-.3-.014-.794-.025-.793.758-.793.809,0,1.617.008,2.426-.006.243,0,.311.073.306.31-.015.652-.005,1.3-.005,1.956" transform="translate(-216.569 -101.451)"/>
    <path id="Path_380" data-name="Path 380" d="M146.72,201.617c-.435,0-.812-.009-1.189,0-.187.007-.24-.1-.3-.241-.255-.613-.524-1.22-.777-1.833a.366.366,0,0,0-.393-.282c-1.409.014-2.818.011-4.226,0a.336.336,0,0,0-.365.255c-.247.616-.525,1.219-.771,1.835a.354.354,0,0,1-.4.265c-.35-.019-.7-.005-1.051-.005-.067-.144.03-.238.074-.335q1.953-4.386,3.908-8.771a.484.484,0,0,1,.458-.31c.667-.1.957.186,1.215.789,1.181,2.75,2.423,5.473,3.642,8.206.052.117.1.235.178.421m-4.758-7.826c-.618,1.428-1.2,2.774-1.785,4.118-.08.183-.1.277.156.276q1.619-.013,3.239,0c.25,0,.246-.09.163-.278-.343-.785-.677-1.574-1.015-2.361-.24-.558-.481-1.115-.758-1.754" transform="translate(-72.478 -101.506)"/>
    <path id="Path_381" data-name="Path 381" d="M469.7,201.625l2.109-4.729c.646-1.448,1.3-2.894,1.933-4.347a.529.529,0,0,1,.515-.345c.63-.078.909.171,1.159.754,1.189,2.771,2.441,5.515,3.671,8.269.177.4.177.4-.268.4-.952,0-.953,0-1.326-.871-.174-.406-.358-.809-.514-1.222a.359.359,0,0,0-.406-.26q-2.091.015-4.183,0a.359.359,0,0,0-.392.274c-.249.614-.521,1.219-.773,1.833a.334.334,0,0,1-.37.253c-.363-.018-.728-.005-1.155-.005m4.8-7.831c-.62,1.435-1.206,2.793-1.8,4.15-.06.139-.107.243.12.243q1.659,0,3.317,0c.2,0,.218-.079.151-.235-.585-1.356-1.17-2.713-1.792-4.158" transform="translate(-248.088 -101.511)"/>
    <path id="Path_382" data-name="Path 382" d="M187.091,196.907c0-1.447.006-2.894-.006-4.341,0-.252.062-.328.321-.327q2.758.017,5.516,0c.243,0,.3.066.3.305,0,.789.012.789-.765.789-1.213,0-2.425.008-3.637-.006-.274,0-.393.042-.382.356.025.769.017,1.539,0,2.308,0,.251.06.332.323.329,1.277-.014,2.555,0,3.833-.013.287,0,.379.063.372.364-.017.753,0,.753-.757.753-1.147,0-2.295.008-3.442-.006-.258,0-.334.07-.329.327.016.808.025,1.617,0,2.424-.012.347.117.4.423.4,1.33-.016,2.66,0,3.99-.013.288,0,.38.067.374.367-.016.728,0,.729-.738.729-1.682,0-3.364-.008-5.046.008-.3,0-.364-.083-.361-.369.015-1.46.007-2.92.007-4.38" transform="translate(-98.814 -101.537)"/>
    <path id="Path_383" data-name="Path 383" d="M234.5,196.914c0-1.433.011-2.867-.008-4.3,0-.321.1-.378.392-.376q2.62.02,5.24,0c.3,0,.4.061.4.381-.02.732,0,.733-.741.733-1.173,0-2.346.013-3.519-.008-.32-.006-.387.1-.38.394.019.716.023,1.434,0,2.15-.011.327.056.444.419.436,1.2-.027,2.4,0,3.6-.017.276,0,.349.07.344.344-.012.773,0,.773-.77.773-1.069,0-2.138.013-3.206-.008-.319-.007-.386.1-.382.394.016,1.16,0,2.32.013,3.48,0,.294-.076.4-.37.364-.331-.041-.776.143-.967-.081-.163-.191-.053-.62-.054-.944q0-1.857,0-3.714" transform="translate(-123.842 -101.536)"/>
    <path id="Path_384" data-name="Path 384" d="M165.563,197.527c0-1.251-.008-2.5.006-3.753,0-.268-.061-.357-.342-.351-.847.019-1.694,0-2.541.012-.228,0-.313-.041-.314-.295,0-.9-.016-.9.881-.9,2.164,0,4.328.006,6.491-.007.3,0,.432.042.42.392-.026.8-.006.8-.824.8-.664,0-1.33.016-1.994-.007-.3-.01-.392.068-.391.382.014,2.463,0,4.927.018,7.39,0,.385-.1.474-.472.462-.937-.028-.938-.008-.938-.963v-3.167" transform="translate(-85.761 -101.536)"/>
    <path id="Path_385" data-name="Path 385" d="M336.094,197.531c0-1.225-.011-2.451.008-3.675.005-.327-.051-.452-.417-.437-.807.034-1.616-.006-2.424.018-.307.009-.361-.092-.357-.372.014-.821,0-.821.837-.821,2.19,0,4.38.007,6.57-.008.313,0,.389.088.382.389-.017.8,0,.8-.819.8-.652,0-1.3.019-1.955-.008-.333-.014-.437.062-.435.419.018,2.451,0,4.9.019,7.351,0,.377-.09.479-.468.468-.941-.029-.942-.009-.942-.96Z" transform="translate(-175.833 -101.535)"/>
    <path id="Path_386" data-name="Path 386" d="M451.384,197.492c0-1.212-.011-2.425.008-3.636.005-.327-.052-.452-.418-.437-.807.033-1.617-.006-2.424.018-.308.009-.361-.093-.356-.373.014-.821,0-.821.837-.821,2.19,0,4.38.007,6.57-.008.314,0,.388.089.381.389-.017.8,0,.8-.819.8-.652,0-1.3.019-1.955-.008-.334-.014-.437.063-.434.419.018,2.451,0,4.9.019,7.351,0,.378-.091.479-.468.467-.941-.029-.941-.009-.941-.961v-3.206" transform="translate(-236.727 -101.535)"/>
    <path id="Path_387" data-name="Path 387" d="M498.124,196.883c0-1.447.008-2.894-.008-4.34,0-.282.081-.369.35-.336.343.043.8-.153,1,.087.169.2.057.646.057.983,0,2.255.006,4.51,0,6.765,0,.293.056.4.377.393,1.277-.02,2.555,0,3.833-.014.251,0,.365.032.36.328-.01.865.006.866-.875.866-1.578,0-3.155-.008-4.732.007-.285,0-.374-.058-.37-.36.018-1.459.009-2.92.009-4.379" transform="translate(-263.094 -101.501)"/>
    <path id="Path_388" data-name="Path 388" d="M397.39,196.891c0-1.419.009-2.838-.007-4.258,0-.306.043-.456.392-.414.32.039.752-.1.942.067.224.193.074.636.074.969.006,2.656,0,5.313.011,7.969,0,.315-.065.449-.4.413-.32-.034-.741.095-.941-.067s-.064-.609-.067-.929c-.009-1.25,0-2.5,0-3.75" transform="translate(-209.869 -101.518)"/>
    <path id="Path_389" data-name="Path 389" d="M438.275,196.921c0,1.445-.009,2.891.007,4.336,0,.3-.081.395-.372.362-.333-.037-.77.139-.976-.068s-.06-.643-.061-.977c0-2.669,0-5.338-.009-8.007,0-.291.068-.4.363-.362.333.039.767-.136.979.068s.065.642.067.976c.008,1.224,0,2.448,0,3.672" transform="translate(-230.721 -101.501)"/>
  </g>
</svg>
